<?xml version="1.0" encoding="UTF-8"?>
<svg xmlns="http://www.w3.org/2000/svg" width="710.336" height="370.798" viewBox="0 0 710.336 370.798">
  <g id="Group_36565" data-name="Group 36565" transform="translate(-3904.662 -622.809)">
    <path id="Path_35850" data-name="Path 35850" d="M4402.383,1388.006c0,19.238-159.015,34.834-355.168,34.834s-355.168-15.6-355.168-34.834,159.014-34.835,355.168-34.835S4402.383,1368.767,4402.383,1388.006Z" transform="translate(212.615 -429.234)" fill="#a7c4c6"></path>
    <g id="Group_36451" data-name="Group 36451" transform="translate(3945.684 677.715)">
      <g id="Group_36434" data-name="Group 36434" transform="translate(66.219 266.603)">
        <path id="Path_35851" data-name="Path 35851" d="M4473.03,1366.661s7.284,12.347,10.359,14.363c4.174,2.738,1.559,5.506-.424,5.509s-12.107.727-14.338-1.8-3.338-10.12-5.413-12.1-3.975-9.307,1.01-11.79C4469.691,1358.11,4473.03,1366.661,4473.03,1366.661Z" transform="translate(-4461.062 -1360.298)" fill="#189da0"></path>
      </g>
      <g id="Group_36435" data-name="Group 36435" transform="translate(69.197 266.492)">
        <path id="Path_35852" data-name="Path 35852" d="M4474.152,1360.044s7.92,15.5,9.358,17.638-2.708,2.133-5.277,1.119-9.233-11.3-9.957-13.275a11.129,11.129,0,0,1-.2-4.836Z" transform="translate(-4467.894 -1360.044)" fill="#3b3b40"></path>
      </g>
      <g id="Group_36436" data-name="Group 36436" transform="translate(66.582 275.315)">
        <path id="Path_35853" data-name="Path 35853" d="M4461.894,1380.281l1.926,14.824,1.021.045-.317-10.665Z" transform="translate(-4461.894 -1380.281)" fill="#189da0"></path>
      </g>
      <g id="Group_36437" data-name="Group 36437" transform="translate(3.977 252.06)">
        <path id="Path_35854" data-name="Path 35854" d="M4330.045,1335.807s1.746,14.228,3.76,17.306c2.733,4.177-.77,5.671-2.589,4.881s-11.39-4.17-12.424-7.382.983-10.611-.127-13.259.075-10.12,5.637-10.405C4330.4,1326.635,4330.045,1335.807,4330.045,1335.807Z" transform="translate(-4318.288 -1326.939)" fill="#189da0"></path>
      </g>
      <g id="Group_36438" data-name="Group 36438" transform="translate(8.234 252.068)">
        <path id="Path_35855" data-name="Path 35855" d="M4335.634,1328.791s1.069,17.375,1.533,19.908-3.334.874-5.283-1.082-3.951-14.047-3.826-16.147a11.137,11.137,0,0,1,1.752-4.512Z" transform="translate(-4328.053 -1326.957)" fill="#3b3b40"></path>
      </g>
      <g id="Group_36439" data-name="Group 36439" transform="translate(0 258.445)">
        <path id="Path_35856" data-name="Path 35856" d="M4313.322,1341.585l-4.156,14.359.917.449,3.969-9.9Z" transform="translate(-4309.167 -1341.585)" fill="#189da0"></path>
      </g>
      <g id="Group_36440" data-name="Group 36440" transform="translate(53.842 48.857)">
        <path id="Path_35857" data-name="Path 35857" d="M4455.846,946.449c-.235-1.151-9.034-18.2-10.62-23.334s-2.95-9.842-3.747-11.874c-.053-.134-.138-.367-.251-.68-.54-1.508-1.711-4.876-2.922-8.022q-.128-.33-.256-.657l-.124-1.2c-.852-2.179-.006-3.435.011-5.17a5.247,5.247,0,0,0-.278-1.731c-.007-.024-.015-.047-.023-.07a38.933,38.933,0,0,1-1.9-6.913c-.49-4.766-3.065-25.973-3.065-25.973s8.339,4.317,9.266,7.65c1.407,5.056,2.841,12.577,3.2,14.89s3.98,21.571,4.736,25.487a51.045,51.045,0,0,0,2.712,9.824c1.088,2.59,8.331,25.681,8.779,27.749S4456.082,947.6,4455.846,946.449Z" transform="translate(-4432.671 -860.824)" fill="#eea886"></path>
        <path id="Path_35858" data-name="Path 35858" d="M4484.588,1051.691a43.248,43.248,0,0,1-.721,5.517c-.28,1.375.871,9.909,1.1,11,.193.914.715.269.928-.389.122-.378.2-3.405.483-5.055.243-1.385.556-1.94.856-1.554a29.061,29.061,0,0,1,1.5,8.19c-.117,2.414,1.286,7.7,2.386,6.725s2.376-11.169,1.535-14.789a48.582,48.582,0,0,0-2.9-7.994Z" transform="translate(-4461.524 -968.482)" fill="#eea886"></path>
      </g>
      <g id="Group_36441" data-name="Group 36441" transform="translate(43.289 120.436)">
        <path id="Path_35859" data-name="Path 35859" d="M4411.313,1057.472c.363,1.753,2.685,9.086,5.284,17.235h0c2.371,7.429,4.973,15.533,6.532,20.705.583,1.929,1.021,3.451,1.247,4.377,1.5,6.123-.187,15.729-.73,23.756s11.109,53.008,11.109,53.008c2.042.952,5.875-5.483,5.875-5.483-1.5-2.857-1.287-53.592-.47-56.722s1.361-11.838.544-15.24a13.236,13.236,0,0,1-.268-2.73c-.069-4.294.815-11.392,1.356-19.177.68-9.8-3.129-34.154-3.673-36.331-.05-.2-.129-.482-.231-.828-1-3.416-4.229-13.114-4.229-13.114-6.546-1.947-11.475-2.3-15.153-1.549a11.263,11.263,0,0,0-8.888,7.625C4406.417,1041.861,4410.843,1055.2,4411.313,1057.472Z" transform="translate(-4408.465 -1025.015)" fill="#3b3b40"></path>
      </g>
      <g id="Group_36442" data-name="Group 36442" transform="translate(9.294 113.666)">
        <path id="Path_35860" data-name="Path 35860" d="M4330.485,1149.092l6.628,2.331c1.124-5.441,28.039-43.52,29.681-47.738s3.393-12.382,3.393-15.376c0-.534.039-1.436.114-2.607.291-4.537,1.122-13.095,2.313-19.755.221-1.242.456-2.418.7-3.491,1.318-5.744,1.547-25.37,1.563-36.911.007-5.136-.028-8.672-.028-8.672s-.114-.091-.328-.252c-2.481-1.878-18.4-13.325-23.946-2.624a32.106,32.106,0,0,0-3,9.027c-1.78,9.7-.033,20.621,1.4,30.572,1.229,8.515,3.584,20.547,4.26,29.475.374,4.911.238,8.886-.872,10.817-3.131,5.443-6.189,10.051-12.519,29.255C4337.785,1129.39,4330.485,1149.092,4330.485,1149.092Z" transform="translate(-4330.485 -1009.485)" fill="#3b3b40"></path>
      </g>
      <g id="Group_36443" data-name="Group 36443" transform="translate(21.579 0)">
        <path id="Path_35861" data-name="Path 35861" d="M4394.656,770.738s3.462-22.391-15.083-21.978-18.3,11.485-17.967,22.475,7.436,10.163-.579,25.449,6.941,15.286,6.941,15.286l11.6-15.947Z" transform="translate(-4358.666 -748.754)" fill="#3c4145"></path>
      </g>
      <g id="Group_36444" data-name="Group 36444" transform="translate(28.407 1.893)">
        <path id="Path_35862" data-name="Path 35862" d="M4390.435,753.357s12.56,1.983,13.055,19.83-3.388,21.648-14.377,17.93-14.459-22.392-14.707-25.284S4373.5,751.209,4390.435,753.357Z" transform="translate(-4374.326 -753.096)" fill="#eea886"></path>
      </g>
      <g id="Group_36445" data-name="Group 36445" transform="translate(22.459 45.513)">
        <path id="Path_35863" data-name="Path 35863" d="M4360.684,871.871c-.047,6.146,7.016,20.835,8.1,25.371s2.812,5.987,1.361,11.793-5.951,25.447-5.77,27.17,40.479,8.079,46.558,6.9c0,0-7.43-27.724-7.974-30.9s.662-15.078.933-18.435,3.67-10.581,3.556-13.946c-.116-3.427-1.8-6.387-4.155-10.047-.729-1.135-1.5-2.291-2.262-3.415a64.735,64.735,0,0,0-6.212-8.13,19.669,19.669,0,0,0-2.5-2l-.007,0a11.6,11.6,0,0,0-2.573-1.357l-10.795-1.724s-6.729,2.434-10.6,3.34C4368.351,856.493,4360.8,857.595,4360.684,871.871Z" transform="translate(-4360.684 -853.153)" fill="#22beca"></path>
      </g>
      <g id="Group_36446" data-name="Group 36446" transform="translate(54.093 48.594)">
        <path id="Path_35864" data-name="Path 35864" d="M4433.246,860.22l6.256,9.861,5.775,9.1c-.014-.049-.4-1.427-1.051-5.417-.124-.758-.257-1.61-.4-2.564a6.747,6.747,0,0,0-.181-.84h0c-2.472-5.7-10.113-9.995-10.393-10.137Z" transform="translate(-4433.246 -860.22)" fill="#22beca"></path>
      </g>
      <g id="Group_36447" data-name="Group 36447" transform="translate(14.858 49.06)">
        <path id="Path_35865" data-name="Path 35865" d="M4351.214,871.274s1.735-11.7,10.306-9.769c8.235,1.853.518,17.188-.087,19s-6.705,16.647-7.234,18.591c-1.673,6.145-.1,6.29,2.411,7.74,7.428,4.278,22.7,4,24.463,5.172s1.657,4.836-1.3,4.964c-3.85.166-25.852-1.905-28.922-2.206-2.975-.292-8.9-.54-7.346-11.119C4344.551,896.526,4351.214,871.274,4351.214,871.274Z" transform="translate(-4343.248 -861.291)" fill="#eea886"></path>
      </g>
      <g id="Group_36448" data-name="Group 36448" transform="translate(36.076 31.612)">
        <path id="Path_35866" data-name="Path 35866" d="M4391.971,821.531c1.089,2.056,2.237,14.817,2.237,14.817s15.361,5.805,13.789,2.521a12.567,12.567,0,0,1-.937-5.092,24.61,24.61,0,0,1,.172-3.1c.039-.336.07-.529.07-.529S4390.882,819.474,4391.971,821.531Z" transform="translate(-4391.919 -821.267)" fill="#eea886"></path>
      </g>
      <g id="Group_36449" data-name="Group 36449" transform="translate(27.403 1.592)">
        <path id="Path_35867" data-name="Path 35867" d="M4394.258,765.775s-6.444,10.493-12.312,14.625-2.892,7.436-2.892,7.436-15.306-32.224-.753-34.455,23.476-2.4,23.89,19.417C4402.191,772.8,4395.581,765.61,4394.258,765.775Z" transform="translate(-4372.023 -752.406)" fill="#3c4145"></path>
      </g>
      <g id="Group_36450" data-name="Group 36450" transform="translate(42.629 39.708)">
        <path id="Path_35868" data-name="Path 35868" d="M4406.951,839.837c2.357,3.478,8.588,4.414,8.588,4.414h0a24.764,24.764,0,0,1,.17-3.1C4411.708,841.923,4406.951,839.837,4406.951,839.837Z" transform="translate(-4406.951 -839.837)" fill="#a77860"></path>
      </g>
      <path id="Path_35869" data-name="Path 35869" d="M4443.629,870.3h0a12.88,12.88,0,0,1,.607,3.471l-2.262-3.415s-4.042-5.794-5.426-7.3a22.885,22.885,0,0,0-3.286-2.826S4441.213,864.048,4443.629,870.3Z" transform="translate(-4379.162 -811.631)" fill="#22beca"></path>
      <path id="Path_35870" data-name="Path 35870" d="M4413.619,909.422l-24.208-2a1.863,1.863,0,0,0-2.012,1.718l-3,40.1a1.862,1.862,0,0,0,1.667,1.992l23.243,2.393a1.863,1.863,0,0,0,2.045-1.672l3.97-40.49A1.863,1.863,0,0,0,4413.619,909.422Z" transform="translate(-4351.597 -838.245)" fill="#2f4563"></path>
      <path id="Path_35871" data-name="Path 35871" d="M4398.836,968.365s4.587.768,5.014.7,2.24-3.04,4.341-3.572,4.727-.943,5.374-1.347.825,1.656-1.193,2.5-2.523,1.968,1.254,2.727c2.092.419,9.9-.453,9.255.866-.381.774-7.91,1.329-7.91,1.329s8.124-.037,8.4.454c.544.968-7.6,1.31-7.945,1.278,0,0,6.982.4,7.044,1.027.076.779-7,.447-6.932.575,0,0,5.55.383,5.5.856-.073.621-4.959.7-5.9.585s-10.516-1.2-12.119-1.519-4.317-.508-4.317-.508Z" transform="translate(-4359.664 -870.216)" fill="#eea886"></path>
      <path id="Path_35872" data-name="Path 35872" d="M4375.526,968.187a82.562,82.562,0,0,0,8.758,2.487c4.217.893-.141,5.946-.141,5.946s-7.306-.675-10.817-1.018C4371.625,975.437,4375.526,968.187,4375.526,968.187Z" transform="translate(-4345.113 -872.525)" fill="#eea886"></path>
      <path id="Path_35873" data-name="Path 35873" d="M4370.395,879.376s-9.859-3.867-12.776-4.092c0,0,1.984-15.833,11.668-14.154S4370.395,879.376,4370.395,879.376Z" transform="translate(-4336.496 -812.069)" fill="#22beca"></path>
      <path id="Path_35874" data-name="Path 35874" d="M4370.107,1071.111c1.229,8.515,3.583,20.547,4.26,29.475,0,0,6.945,1.386,17.066,2.632,2.74.337,5.713.663,8.845.951,5.425.5,11.323.871,17.307.966-.069-4.294.816-11.392,1.356-19.177.681-9.8-3.129-34.154-3.673-36.331-.05-.2-.129-.482-.23-.828-4.9-2.695-11.918-4.513-19.027-5.74-3.124-.539-6.262-.964-9.244-1.3-9.32-1.045-17.1-1.207-18.062-1.223C4366.924,1050.237,4368.671,1061.16,4370.107,1071.111Z" transform="translate(-4342.324 -913.335)" fill="#22beca"></path>
      <path id="Path_35875" data-name="Path 35875" d="M4405.913,854.83s7.239,11.129,4.789,12.1-15.713-1.3-21.353-11.869C4389.349,855.063,4397.78,850.74,4405.913,854.83Z" transform="translate(-4354.394 -807.594)" fill="#eea886"></path>
    </g>
    <g id="Group_36493" data-name="Group 36493" transform="translate(4495.801 664.8)">
      <g id="Group_36481" data-name="Group 36481" transform="translate(10.429 276.235)">
        <path id="Path_35899" data-name="Path 35899" d="M5600.791,1367.584s-6.65,9.343-5.738,10.824,7.906,1.692,12.163,0,4.359-12.642,6.285-17.346c.806-1.969-.919-7.782-3.346-8.2a9.85,9.85,0,0,0-5.064.817S5607.606,1360.3,5600.791,1367.584Z" transform="translate(-5594.967 -1352.769)" fill="#363a5e"></path>
      </g>
      <g id="Group_36483" data-name="Group 36483" transform="translate(14.055 276.102)">
        <g id="Group_36482" data-name="Group 36482">
          <path id="Path_35900" data-name="Path 35900" d="M5609.737,1353.425a45.674,45.674,0,0,0-1.91,7.777c-.424,3.151-4.738,9.84-4.536,10.687s5.676,1.613,7.906-.569,3.665-8.525,4.155-12.32a31.575,31.575,0,0,1,1.035-5.279S5611.867,1351.1,5609.737,1353.425Z" transform="translate(-5603.285 -1352.462)" fill="#eea886"></path>
        </g>
      </g>
      <g id="Group_36484" data-name="Group 36484" transform="translate(68.552 276.24)">
        <path id="Path_35901" data-name="Path 35901" d="M5733.878,1367.745s-6.41,9.188-5.5,10.668,7.906,1.692,12.163,0,4.358-12.642,6.284-17.346c.807-1.969-.919-7.783-3.345-8.2a10.5,10.5,0,0,0-5.271.907S5740.7,1360.461,5733.878,1367.745Z" transform="translate(-5728.292 -1352.78)" fill="#363a5e"></path>
      </g>
      <g id="Group_36486" data-name="Group 36486" transform="translate(72.181 275.894)">
        <g id="Group_36485" data-name="Group 36485">
          <path id="Path_35902" data-name="Path 35902" d="M5742.908,1353.321a65.113,65.113,0,0,1-1.318,7.4c-.81,3.067-5.168,10.048-4.966,10.894s5.676,1.613,7.906-.569,3.953-8.5,4.156-12.32a21.185,21.185,0,0,0-.507-6.316S5745.037,1350.994,5742.908,1353.321Z" transform="translate(-5736.617 -1351.985)" fill="#eea886"></path>
        </g>
      </g>
      <g id="Group_36488" data-name="Group 36488" transform="translate(20.108 104.933)">
        <g id="Group_36487" data-name="Group 36487">
          <path id="Path_35903" data-name="Path 35903" d="M5643.5,980.025s-5.706,27.7-7.017,34.679-4.98,40.757-5.373,46.5-5.956,27.387-5.692,29.438-8.247,43.263-8.247,43.263a4.95,4.95,0,0,0,5.969.22c1.575-1.142,18.667-38.582,18.667-48.839,0-14.179,10.048-32.687,11.345-35.859,12.043-29.469,9.672-38.478,11.245-40.393s1.708,1.183,2.626,5.422,2.883,40.893,4.063,45.543.264,20.379.918,28.311,3.533,43.814,3.533,43.814,2.229,3.644,5.354.095c.673-.764,5.4-39.971,5.528-49.407s.271-22.451.524-26.533c2.429-39.106,8.4-44.691-1-72.367C5668.338,932.093,5643.5,980.025,5643.5,980.025Z" transform="translate(-5617.169 -959.829)" fill="#eea886"></path>
        </g>
      </g>
      <g id="Group_36489" data-name="Group 36489" transform="translate(34.799 117.384)">
        <path id="Path_35904" data-name="Path 35904" d="M5700.83,988.393s16.259,23.744,9.259,74.254c0,0-38.562,5.473-59.222-6.331,0,0,8.542-52.077,11.639-60.18S5700.83,988.393,5700.83,988.393Z" transform="translate(-5650.867 -988.39)" fill="#3f446e"></path>
      </g>
      <g id="Group_36490" data-name="Group 36490" transform="translate(27.924 283.706)">
        <path id="Path_35905" data-name="Path 35905" d="M5636.313,1369.906v9.781H5635.1v-7.56Z" transform="translate(-5635.098 -1369.906)" fill="#363a5e"></path>
      </g>
      <g id="Group_36491" data-name="Group 36491" transform="translate(86.05 283.706)">
        <path id="Path_35906" data-name="Path 35906" d="M5769.646,1369.906v9.781h-1.217v-7.56Z" transform="translate(-5768.429 -1369.906)" fill="#363a5e"></path>
      </g>
      <path id="Path_35907" data-name="Path 35907" d="M5710.975,742.952s-10.888,10.967-7.18,25.09,9.667,14.2,16.235,8.127,10.434-12.466,11.3-19.567S5720.916,733.168,5710.975,742.952Z" transform="translate(-5645.488 -730.851)" fill="#eea886"></path>
      <path id="Path_35908" data-name="Path 35908" d="M5716.375,829.294a64.369,64.369,0,0,0,2.746-7.854c.2-.733.384-1.48.542-2.226.556-2.617.783-5.194.184-6.963-1.736-5.129,10.888-1.578,10.888-1.578s-2.446,13.571,0,18.147S5716.375,829.294,5716.375,829.294Z" transform="translate(-5653.018 -770.09)" fill="#eea886"></path>
      <path id="Path_35909" data-name="Path 35909" d="M5713.56,856.751c-1.987-3.966-3.473-5.243-7.314-6.455-2.149-.679-11.751-3.179-11.751-3.179l-11.533-.423a102.909,102.909,0,0,0-14.084,3.451c-6.156,2.131-14.218,13.79-14.218,13.79s11.125,26.117,13.255,33.612.71,19.093.71,19.093c13.335,7.259,34.716-.71,34.716-.71a42.811,42.811,0,0,1-.837-17.544c.1-.572.213-1.117.338-1.628.115-.468.273-1.136.457-1.883.009-.033.017-.067.023-.1,8.482.868,16.435,1.221,16.643-.48C5720.9,886.634,5716.293,862.2,5713.56,856.751Zm-5.876,29.779c-.342-.051-1.069-.055-1.837-.124.941-2.628,1.992-4.955,1.992-4.955C5708.439,883.127,5710.724,886.985,5707.683,886.53Z" transform="translate(-5618.208 -791.082)" fill="#eddad3"></path>
      <path id="Path_35910" data-name="Path 35910" d="M5714.6,750.1s5.207,9.468,8.443,12.861,2.854,6.086,2.854,6.086,12.609-15.554,3.615-24.944-20.593-5.6-23.986,2.6-2.15,18.229-2.15,18.229S5703.472,755.308,5714.6,750.1Z" transform="translate(-5645.559 -730.11)" fill="#e8734d"></path>
      <path id="Path_35911" data-name="Path 35911" d="M5737.229,729.207s-1.259-6.931,9.61-9.688,15.752,9.767,14.414,17.407-10.633,27.015-5.593,29.536,7.01-2.914,7.01-2.914-1.576,9.53-8.585,7.325-6.065-17.692-5.008-23.865S5737.229,729.207,5737.229,729.207Z" transform="translate(-5664.756 -719.13)" fill="#e8734d"></path>
      <path id="Path_35912" data-name="Path 35912" d="M5732.545,819.931a13.267,13.267,0,0,1-9.872,7.406c.2-.733.385-1.48.542-2.225C5723.215,825.111,5727.1,825.894,5732.545,819.931Z" transform="translate(-5656.57 -775.987)" fill="#a77860"></path>
      <path id="Path_35913" data-name="Path 35913" d="M5772.625,909.806s-.519,1.094-1.941,5.4c-1.449-12.107-.692-18.408-.692-18.408A45.488,45.488,0,0,0,5772.625,909.806Z" transform="translate(-5683.148 -819.346)" fill="#cfbeb8"></path>
      <path id="Path_35914" data-name="Path 35914" d="M5741.172,738.36s7.714,1.482,11.562,7.765c0,0-.78-5.691-4.62-7.33A9.842,9.842,0,0,0,5741.172,738.36Z" transform="translate(-5667.005 -729.736)" fill="#eddad3"></path>
      <path id="Path_35915" data-name="Path 35915" d="M5754.58,955.768c-.183.747-.342,1.415-.457,1.883-.125.511-.237,1.056-.338,1.628-4.777-2.6-8.208-4.629-8.208-4.629C5746.862,954.938,5754.58,955.768,5754.58,955.768Z" transform="translate(-5669.489 -851.975)" fill="#cfbeb8"></path>
      <path id="Path_35916" data-name="Path 35916" d="M5729.951,846.5l-13.577,11.067,1.4-11.658S5725.689,844.2,5729.951,846.5Z" transform="translate(-5653.018 -790.292)" fill="#eea886"></path>
      <path id="Path_35917" data-name="Path 35917" d="M5720.3,854.456l-3.924,1.878,13.333-13.218Z" transform="translate(-5653.018 -789.065)" fill="#d6c5be"></path>
      <path id="Path_35918" data-name="Path 35918" d="M5742.423,894.466c-1.868,7.744,5.045,25.171,5.045,25.171l-13.7,4.283a3.513,3.513,0,0,1-4.483-2.612c-1.834-8.528-6.135-29.518-6.649-41.188-.655-14.89,10.186-32.456,10.186-32.456,19.269,3.306,13.986,32.456,13.986,32.456s-.7,1.837-1.634,4.707v0c-.235.72-.484,1.507-.742,2.345C5743.77,889.329,5743.06,891.832,5742.423,894.466Z" transform="translate(-5656.533 -791.63)" fill="#494f80"></path>
      <path id="Path_35919" data-name="Path 35919" d="M5678.591,847.331l.238-.637s-9.868,1.5-14.884,4.006-14.616,15.445-14.616,15.445l12.558,16.578c.014,12.74-2.052,35.393-2.052,35.393l5.741,3.308a2.34,2.34,0,0,0,3.509-1.983c.162-8.614.548-29.069.751-38.975.26-12.742,9.353-33.349,9.353-33.349C5678.987,847.186,5678.789,847.258,5678.591,847.331Z" transform="translate(-5615.202 -791.082)" fill="#494f80"></path>
      <path id="Path_35920" data-name="Path 35920" d="M5675.412,972.164s9.469.368,10.94,0,11.3-4.629,11.888-8.836-22.828,3.771-22.828,3.771Z" transform="translate(-5629.914 -856.178)" fill="#eea886"></path>
      <path id="Path_35921" data-name="Path 35921" d="M5693.083,949.2l-38.424-4.5,17.358,14.123Z" transform="translate(-5618.207 -846.364)" fill="#6a77bf"></path>
      <path id="Path_35922" data-name="Path 35922" d="M5693.558,964.645l21.065-7.18v-2.446L5692.847,962Z" transform="translate(-5639.748 -852.183)" fill="#323657"></path>
      <g id="Group_36492" data-name="Group 36492" transform="translate(48.745 95.327)">
        <path id="Path_35923" data-name="Path 35923" d="M5697.826,938.247a32.9,32.9,0,0,1-4.958-.362c-1.377-.28-4.8.107-5.673.879s-3.646,6.158-4.17,6.487.269,1.089,1.189.708c0,0,.846,2.356,2.934,1.474s3.5-2.808,4.6-3.148,7.459-2.051,7.459-2.051S5699.466,937.674,5697.826,938.247Z" transform="translate(-5682.857 -937.794)" fill="#eea886"></path>
      </g>
      <path id="Path_35924" data-name="Path 35924" d="M5707.213,841.76l-7.313,11.583-3.532,2.226,8.229-11.534Z" transform="translate(-5641.733 -788.299)" fill="#fae6de"></path>
      <path id="Path_35925" data-name="Path 35925" d="M5704.468,853.343l5.191,2.226,1.4-11.658.724-2.151Z" transform="translate(-5646.302 -788.299)" fill="#d6c5be"></path>
      <path id="Path_35926" data-name="Path 35926" d="M5641.792,963.568s-.394,4.892,0,5.918c0,0-23.7-2.367-25.906-5.681a14.284,14.284,0,0,1-2.13-7.338Z" transform="translate(-5595.136 -853)" fill="#494f80"></path>
      <path id="Path_35927" data-name="Path 35927" d="M5624.854,917.38l-11.2-41.659-42.6-4.5,11.676,38.346Z" transform="translate(-5571.045 -804.918)" fill="#252740"></path>
      <path id="Path_35928" data-name="Path 35928" d="M5734.784,843.117l-9.41,11.339,5.149,4.592,5.556-13.575Z" transform="translate(-5658.094 -789.065)" fill="#fae6de"></path>
      <path id="Path_35929" data-name="Path 35929" d="M5751.007,930.671s-.316.958-.316.96c-.236.72-.483,1.507-.743,2.345-1.818.572-17.557-.582-17.557-.582S5745.563,930.3,5751.007,930.671Z" transform="translate(-5662.052 -838.433)" fill="#3d426b"></path>
      <path id="Path_35930" data-name="Path 35930" d="M5741.416,887.835c-2.536-.191-6.688-.462-10.088-.476-5.288-.023-14.332.566-14.332.566l1.079,5.651s16.02,2.6,24.77,3.214h0s11.547,1.325,12.405-.4-.285-12.784-2.162-22.75-3.809-15.707-6.106-18.785-14.425-5.478-14.425-5.478l10.289,33.677s1.476,3,1.4,4.3c-.023.395-.3.581-.667.651-.258-.023-.828-.071-1.613-.133Z" transform="translate(-5653.368 -792.598)" fill="#494f80"></path>
    </g>
    <g id="Group_36506" data-name="Group 36506" transform="translate(4383.384 664.8)">
      <path id="Path_35931" data-name="Path 35931" d="M5568.154,1019.4s1.938,4.422,3.795,3.868a16.656,16.656,0,0,1,5.478-.3c1.157.127,4.919-.756,4.7.651s-6.145,1.739-7.384,2.045,3.214,3.455,3.525,4.666-5.906,8.226-8.684,5.715-3.927-7.029-4.512-7.374a34.557,34.557,0,0,1-3.135-3.944Z" transform="translate(-5453.49 -888.495)" fill="#eea886"></path>
      <path id="Path_35932" data-name="Path 35932" d="M5587.84,1042.78s7.945,8.254,7.973,9.25-.486,1.4-1.264.662-7.928-7.751-7.928-7.751,7.613,11.359,7.822,12.162c.123.471-.825,1.313-1.281.955s-8.7-11.173-8.7-11.173,7.087,10.619,7.051,11.35a.957.957,0,0,1-1.678.462c-.584-.75-7.762-10.224-7.762-10.224s4.636,8.063,4.224,8.68c-.252.378-1.038,1.141-2.164-.979s-4.345-6.827-4.345-6.827Z" transform="translate(-5463.561 -901.685)" fill="#eea886"></path>
      <g id="Group_36494" data-name="Group 36494" transform="translate(5.653 285.99)">
        <path id="Path_35933" data-name="Path 35933" d="M5336.7,1375.144s-3.045,2.174-4.732,3.7-3.983,3.179-5.39,7.065c-1.422,3.933.82,6.758,4.627,6.991s9.644-2.643,10.213-6.129c.563-3.452,5.036-3.045,5.619-5.5a13.436,13.436,0,0,0-.2-5.478Z" transform="translate(-5326.145 -1375.144)" fill="#353a3d"></path>
      </g>
      <g id="Group_36495" data-name="Group 36495" transform="translate(16.206 283.135)">
        <path id="Path_35934" data-name="Path 35934" d="M5350.859,1368.595l-.507,2.855s1.569,2.9,10.141.645l-.441-2.814Z" transform="translate(-5350.352 -1368.595)" fill="#81807e"></path>
      </g>
      <path id="Path_35935" data-name="Path 35935" d="M5360.492,1375.7s-1.931.253-3.306.469-4.1-1.541-6.834-1.114l.842,3.472S5360.3,1376.823,5360.492,1375.7Z" transform="translate(-5334.146 -1089.067)" fill="#353a3d"></path>
      <g id="Group_36496" data-name="Group 36496" transform="translate(60.408 285.419)">
        <path id="Path_35936" data-name="Path 35936" d="M5462.3,1373.836s3.045,2.174,4.732,3.7,3.983,3.18,5.39,7.065c1.422,3.933-.82,6.758-4.627,6.991s-9.645-2.642-10.213-6.129c-.563-3.452-5.036-3.045-5.619-5.5a13.443,13.443,0,0,1,.2-5.478Z" transform="translate(-5451.745 -1373.836)" fill="#353a3d"></path>
      </g>
      <g id="Group_36497" data-name="Group 36497" transform="translate(60.821 282.565)">
        <path id="Path_35937" data-name="Path 35937" d="M5462.325,1367.289l.507,2.854s-1.568,2.9-10.14.645l.442-2.813Z" transform="translate(-5452.692 -1367.289)" fill="#81807e"></path>
      </g>
      <g id="Group_36498" data-name="Group 36498" transform="translate(14.442 126.542)">
        <path id="Path_35938" data-name="Path 35938" d="M5406.42,1100.468c0,6.274-.9,65.472-.9,65.472-.628,2.092-12.35,2.776-14.442,1.731s-1.726-59.748-2.112-66.075-5.471-52.873-7.3-52.664-12.2,44.056-13.667,48.866-7.229,69.539-7.229,69.539a26.242,26.242,0,0,1-14.464.3s2.734-65.555,2.737-73.339c0-2.888.853-5.075,1.671-20.434.623-11.707,3.881-35.7,6.063-52.2q.116-.881.224-1.692c.427-3.213.747-5.573.9-6.705.067-.49.1-.75.1-.75q.882-.406,1.842-.75c15.319-5.5,44.864.322,44.864.322s.016.145.05.418l.179,1.526c.17,1.456.424,3.622.715,6.138,0,.018.005.036.007.054.007.075.018.153.026.23,1.03,8.952,1.541,13.869,2.351,23.422C5408.215,1045.966,5406.42,1094.193,5406.42,1100.468Z" transform="translate(-5346.305 -1009.396)" fill="#292c47"></path>
      </g>
      <g id="Group_36499" data-name="Group 36499" transform="translate(0 44.609)">
        <path id="Path_35939" data-name="Path 35939" d="M5372.246,821.719s25.087,5.326,27.179,12.3,6.152,23.346,11.8,41.153c3.379,10.654,20.55,34.918,20.55,34.918s-9.825,7.242-9.825,6.266-23.138-31.851-23.417-35.616-7.29-23.017-7.29-23.017-3.322,37.015-3.322,42.732,1.442,23.287,1.442,23.287-10.087,8.377-28.14,7.436c0,0-25.5.107-25.15-9.923.311-8.84,2.487-61.795,1.93-62.073s-10.573,12.266-9.6,14.681,26.9,11.077,26.9,11.077.758,2.791-3.269,9.116c0,0-38.717-11.313-38.856-13.684s16.1-48.4,21.408-50.815c7.637-3.469,27.871-8.1,27.871-8.1Z" transform="translate(-5313.178 -821.457)" fill="#22beca"></path>
      </g>
      <path id="Path_35940" data-name="Path 35940" d="M5452.692,1374.394s1.931.254,3.306.47,4.1-1.541,6.834-1.115l-.841,3.473S5452.884,1375.516,5452.692,1374.394Z" transform="translate(-5391.871 -1088.33)" fill="#353a3d"></path>
      <g id="Group_36500" data-name="Group 36500" transform="translate(43.285 29.431)">
        <path id="Path_35941" data-name="Path 35941" d="M5429.14,802.672c-.121,6.128-14.189,12.578-14.189,12.578s-3.419-11.452-2.235-12.049c.466-.234.614-.378.672-1.419a21.614,21.614,0,0,0-.068-2.779c-.036-.434-.069-.712-.069-.712s1.7-1.789,3.852-3.919c3.769-3.727,9.163-9.243,9.172-7.344,0,.1.145.151.115.291C5425.479,791.592,5429.14,802.672,5429.14,802.672Z" transform="translate(-5412.466 -786.64)" fill="#eea886"></path>
      </g>
      <g id="Group_36501" data-name="Group 36501" transform="translate(42.96 35.136)">
        <path id="Path_35942" data-name="Path 35942" d="M5423.448,799.727h0c-.024.036-.527.789-1.387,1.869-1.821,2.291-5.245,6.054-9.094,7.567a21.7,21.7,0,0,0-.068-2.779,6.19,6.19,0,0,1-1.179-.143,36.592,36.592,0,0,1,2.58-3.777l2.381-.712Z" transform="translate(-5411.721 -799.727)" fill="#a77860"></path>
      </g>
      <g id="Group_36502" data-name="Group 36502" transform="translate(34.959 10.051)">
        <path id="Path_35943" data-name="Path 35943" d="M5415.374,762.778c-1.026,2.232-2,3.851-2.277,4.492h0a7.957,7.957,0,0,1-1.386,1.869c-1.955,2.107-5.589,4.885-9.163,4.788a6.185,6.185,0,0,1-1.178-.143,5.605,5.605,0,0,1-4.084-2.82c-7.4-14.493-2.042-26.343-2.042-26.343s20.239-5.723,23.406.37C5420.87,749.265,5417.786,757.532,5415.374,762.778Z" transform="translate(-5393.368 -742.185)" fill="#eea886"></path>
      </g>
      <g id="Group_36503" data-name="Group 36503" transform="translate(34.457)">
        <path id="Path_35944" data-name="Path 35944" d="M5394.593,731.618s-1.88-.1-2.345-3.668c-.458-3.521,4.087-5.945,4.087-5.945a25.706,25.706,0,0,1,7.739-2.5c3.005-.419,10.378-.891,12.107,1.086,0,0,4.2-.976,5.347,6,1.816,11.067-6.189,21.812-6.189,21.812s.069-7.23-1.526-8.188-2.97,1.32-2.97,1.32l-3.261.584s4.622-8.935-1.321-9.331A94.113,94.113,0,0,1,5394.593,731.618Z" transform="translate(-5392.215 -719.13)" fill="#223247"></path>
      </g>
      <g id="Group_36504" data-name="Group 36504" transform="translate(53.069 16.468)">
        <path id="Path_35945" data-name="Path 35945" d="M5435.014,759.956c.311-3.185,6.07-4.4,5.685-1.063s-3.223,6.546-4.533,6.433S5434.777,762.384,5435.014,759.956Z" transform="translate(-5434.909 -756.905)" fill="#eea886"></path>
      </g>
      <g id="Group_36505" data-name="Group 36505" transform="translate(14.442 79.074)">
        <path id="Path_35946" data-name="Path 35946" d="M5386.892,906.8l-9.428,48.546-31.159-6.052,8.211-48.783Z" transform="translate(-5346.305 -900.514)" fill="#616161"></path>
        <path id="Path_35947" data-name="Path 35947" d="M5387.4,913.135l-8.374,43.115-27.673-5.375,7.293-43.325Z" transform="translate(-5349.154 -904.483)" fill="#e0cec7"></path>
        <path id="Path_35948" data-name="Path 35948" d="M5398.878,912.275l.588-3.026-11.188-2.173-1.024,2.942Z" transform="translate(-5369.402 -904.215)" fill="#616161"></path>
      </g>
      <path id="Path_35949" data-name="Path 35949" d="M5425.4,965.945s2.382-.066,3.112-.171.249,1.446-.6,1.739S5425.4,965.945,5425.4,965.945Z" transform="translate(-5376.479 -858.247)" fill="#c98462"></path>
      <path id="Path_35950" data-name="Path 35950" d="M5413.567,977.313a4.859,4.859,0,0,1-1.548.141s-.91-.274-1.569-.429a4.638,4.638,0,0,0-.514-.1,8.9,8.9,0,0,1-2.81-.472c-1.178-.46-5.177-2.511-5.177-2.511l1.144-3.718.862-2.946s6.757-1.8,7.906-1.5a3.133,3.133,0,0,1,.323.1,11.279,11.279,0,0,1,1.979,1.25c.176.089,1.848,1.095,1.936,1.672a1.908,1.908,0,0,1-.53,1.776,4.559,4.559,0,0,1-.416,2.472,2.828,2.828,0,0,1-.84,2.355S5414.355,976.908,5413.567,977.313Z" transform="translate(-5363.25 -858.236)" fill="#eea886"></path>
      <path id="Path_35951" data-name="Path 35951" d="M5363.793,910s-1.256,6.786-4.865,11.156c0,0-26.836-10.912-30.222-12.243s12.3-43.027,12.3-43.027l11.545,3.93-6.2,11.729s-3.07,6.571-9.457,17.379C5336.9,898.919,5340.827,902.651,5363.793,910Z" transform="translate(-5321.667 -801.905)" fill="#22beca"></path>
      <path id="Path_35952" data-name="Path 35952" d="M5446.523,883.248s-.708,12.988,5.786,12.988,5.9-11.689,6.021-12.988Z" transform="translate(-5388.379 -811.701)" fill="#189da0"></path>
      <path id="Path_35953" data-name="Path 35953" d="M5449.2,880.7h9.7v-1.971Z" transform="translate(-5389.902 -809.15)" fill="#fff"></path>
    </g>
    <g id="Group_36545" data-name="Group 36545" transform="translate(4220.732 672.713)">
      <g id="Group_36509" data-name="Group 36509" transform="translate(6.195 110.029)">
        <g id="Group_36508" data-name="Group 36508">
          <g id="Group_36507" data-name="Group 36507">
            <path id="Path_35954" data-name="Path 35954" d="M4967.916,990.564s-2.952,1.9-4.648.838a11.251,11.251,0,0,0-4.737-1.069c-1.038-.054-4.158-1.4-4.239-.1s5.039,2.473,6.063,2.932-3.487,2.662-4,3.714,3.565,8.318,6.486,6.447,4.808-5.8,5.387-6.023a21.3,21.3,0,0,0,2.18-1.277Z" transform="translate(-4954.291 -989.669)" fill="#eea886"></path>
          </g>
        </g>
      </g>
      <g id="Group_36510" data-name="Group 36510" transform="translate(94.233 274.126)">
        <path id="Path_35955" data-name="Path 35955" d="M5170.011,1366.287s-6.6,9.655-8.909,11.7c0,0-4.607,2.392-4.75,4.3-.27,3.612-.594,6.978,5.467,7.149s9.983-1.259,11.093-4.929a22.281,22.281,0,0,1,3.755-6.829v7.682h1.366s.341-7.427.427-8.792.981-6.617-1.9-8.943A7.991,7.991,0,0,0,5170.011,1366.287Z" transform="translate(-5156.235 -1366.081)" fill="#162d40"></path>
      </g>
      <g id="Group_36511" data-name="Group 36511" transform="translate(98.221 271.621)">
        <path id="Path_35956" data-name="Path 35956" d="M5165.384,1375.246a15.3,15.3,0,0,0,7.175-.057c3.9-.982,7.639-10.312,8.776-11.089l1.01-3.765h-7.6a16.164,16.164,0,0,1-1.491,5.143C5172.029,1367.863,5165.384,1375.246,5165.384,1375.246Z" transform="translate(-5165.384 -1360.335)" fill="#eea886"></path>
      </g>
      <g id="Group_36512" data-name="Group 36512" transform="translate(46.325 268.79)">
        <path id="Path_35957" data-name="Path 35957" d="M5065.156,1355.776a24.53,24.53,0,0,1-2.859,4.78c-1.371,1.789-5.634,9.134-7.513,9.646s-7.683,1.536-8.194,4.78-.769,5.549,4.95,5.8,9.477.6,12.207-3.414a29.764,29.764,0,0,1,7.085-6.915v10.468h2.221s1.024-10.894,1.622-11.663,2.134-9.134-3.159-13.487S5065.156,1355.776,5065.156,1355.776Z" transform="translate(-5046.342 -1353.841)" fill="#162d40"></path>
      </g>
      <g id="Group_36513" data-name="Group 36513" transform="translate(54.767 269.575)">
        <path id="Path_35958" data-name="Path 35958" d="M5065.707,1371.218s5.123,1.28,7.085,0,8.638-12.562,10.85-13.238c0,0-2.143-4.346-7.562-1.188C5076.079,1356.791,5067.158,1369.34,5065.707,1371.218Z" transform="translate(-5065.707 -1355.641)" fill="#eea886"></path>
      </g>
      <g id="Group_36514" data-name="Group 36514" transform="translate(88.634 110.924)">
        <path id="Path_35959" data-name="Path 35959" d="M5165.674,994.752s7.222,9.39,9.181,20.53-1.156,48.529-1.071,54.035,5.1,23.068,4.076,33.44-6.63,53.233-6.63,53.233l-12.513-.224s2.508-46.714,1.867-51.067-2.677-22.875-2.933-24.668-14.256-49.2-14.256-57.229S5148.259,981.65,5165.674,994.752Z" transform="translate(-5143.394 -991.721)" fill="#1d3b54"></path>
      </g>
      <g id="Group_36515" data-name="Group 36515" transform="translate(57.259 115.275)">
        <path id="Path_35960" data-name="Path 35960" d="M5088.8,1004.053s-11.866,45.286-13.273,51.56-4.226,14.469-4.1,15.622,1.494,20.487,1.494,20.487l3.372,65.815H5088.8s4.012-41.871,4.652-50.321-4.61-21.512-3.329-25.1,20.615-44.944,20.615-44.944S5125.378,990.907,5088.8,1004.053Z" transform="translate(-5071.424 -1001.702)" fill="#1d3b54"></path>
      </g>
      <g id="Group_36516" data-name="Group 36516" transform="translate(14.283 49.848)">
        <path id="Path_35961" data-name="Path 35961" d="M5036.867,851.624s-6.317.255-9.9,4.1-5.378,10.159-6.317,12.207-12.8,21-13.487,21.426-12.741,10.157-18.2,15.365-16.112,11.012-16.112,11.012l4.012,5.634s32.352-17.243,36.45-23.56,20.914-23.475,20.914-23.475S5047.623,858.623,5036.867,851.624Z" transform="translate(-4972.844 -851.624)" fill="#eea886"></path>
      </g>
      <g id="Group_36517" data-name="Group 36517" transform="translate(17.143 49.848)">
        <path id="Path_35962" data-name="Path 35962" d="M5040.567,851.624s-6.316.255-9.9,4.1-5.378,10.159-6.317,12.207-12.8,21-13.487,21.426-10.564,7.212-16.027,12.419-15.429,11.332-15.429,11.332l5.826,7.426s27.72-15.385,32.246-21.4c4.833-6.428,20.444-24.8,20.444-24.8S5051.323,858.623,5040.567,851.624Z" transform="translate(-4979.404 -851.624)" fill="#285173"></path>
      </g>
      <g id="Group_36518" data-name="Group 36518" transform="translate(65.872 46.197)">
        <path id="Path_35963" data-name="Path 35963" d="M5111.895,843.571s-6.146,2.9-8.28,3.329-10.415,11.182-11.866,15.109,0,9.816,2.988,16.731.17,9.219,1.537,16.133,2.561,21.555,2.3,25.4,34.527,4.566,42.465-2.434c0,0-7.979-11.95-9-13.657s-.171-11.012.769-13.4,11.523-20.231,11.523-20.231.777-18.1-3.841-21.682c-4.012-3.116-14.946-4.227-16.909-4.91S5115.907,842.973,5111.895,843.571Z" transform="translate(-5091.181 -843.249)" fill="#eddad3"></path>
      </g>
      <g id="Group_36519" data-name="Group 36519" transform="translate(80.888 44.333)">
        <path id="Path_35964" data-name="Path 35964" d="M5129.359,854.859l-3.735-4.374,3.243-11.514A76.025,76.025,0,0,1,5129.359,854.859Z" transform="translate(-5125.625 -838.972)" fill="#d6c5be"></path>
      </g>
      <g id="Group_36522" data-name="Group 36522" transform="translate(0 116.645)">
        <g id="Group_36521" data-name="Group 36521">
          <g id="Group_36520" data-name="Group 36520">
            <path id="Path_35965" data-name="Path 35965" d="M4948.924,1004.845s-8.563,6.319-8.782,7.218.152,1.342.977.785,8.451-5.866,8.451-5.866-8.879,9.182-9.218,9.88c-.2.408.466,1.31.936,1.052s9.79-8.855,9.79-8.855-8.274,8.588-8.385,9.257a.821.821,0,0,0,1.379.664c.657-.595,8.788-8.132,8.788-8.132s-5.629,6.63-5.39,7.25c.147.379.685,1.185,2.084-.572s5.135-5.552,5.135-5.552Z" transform="translate(-4940.081 -1004.845)" fill="#eea886"></path>
          </g>
        </g>
      </g>
      <g id="Group_36523" data-name="Group 36523" transform="translate(73.49 1.811)">
        <path id="Path_35966" data-name="Path 35966" d="M5129.508,742.521c-3.653-1.285-17.073-4.439-20.231,12.719s6.316,29.365,15.024,26.121,14.084-15.109,14.6-24.158S5134.117,744.143,5129.508,742.521Z" transform="translate(-5108.655 -741.434)" fill="#eea886"></path>
      </g>
      <g id="Group_36524" data-name="Group 36524" transform="translate(74.107 0.407)">
        <path id="Path_35967" data-name="Path 35967" d="M5110.074,753.423s-.657-14.682,13.94-15.195,18.524,11.506,17.328,20.265a21.442,21.442,0,0,1-7.236,13.379s.524-7.087-2.309-8.927-14.186-5.51-19.137-14.047C5112.661,748.9,5110.366,751.593,5110.074,753.423Z" transform="translate(-5110.069 -738.213)" fill="#252e3b"></path>
      </g>
      <g id="Group_36525" data-name="Group 36525" transform="translate(91.675 0)">
        <path id="Path_35968" data-name="Path 35968" d="M5151,751.343c1.924,5.847,7.625,9.224,12.737,7.542s7.695-7.783,5.772-13.63-7.625-9.224-12.736-7.543S5149.083,745.5,5151,751.343Z" transform="translate(-5150.369 -737.28)" fill="#252e3b"></path>
      </g>
      <g id="Group_36526" data-name="Group 36526" transform="translate(105.824 49.589)">
        <path id="Path_35969" data-name="Path 35969" d="M5185.033,851.288s7.747-2.22,12.185,6.316,3.33,13.146,4.354,16.988,5.122,29.536,5.377,30.645,4.183,14.17,3.671,18.183-4.183,34.4-4.012,35.426-7.085-.982-7.085-.982.3-31.029.043-33.59-.513-16.005-2.433-19.463-6.658-24.585-7.683-26.761S5178.5,854.062,5185.033,851.288Z" transform="translate(-5182.823 -851.028)" fill="#eea886"></path>
      </g>
      <g id="Group_36527" data-name="Group 36527" transform="translate(83.653 31.014)">
        <path id="Path_35970" data-name="Path 35970" d="M5131.967,816.834s1.226,11.275.969,14.946c0,0,6.386,6.4,13.651-7.47a19.039,19.039,0,0,1-.756-13.507C5148.131,803.012,5131.967,816.834,5131.967,816.834Z" transform="translate(-5131.967 -808.421)" fill="#eea886"></path>
      </g>
      <g id="Group_36528" data-name="Group 36528" transform="translate(113.888 161.59)">
        <path id="Path_35971" data-name="Path 35971" d="M5201.322,1121.447v-10.452a3.057,3.057,0,0,1,3.054-3.053h16.575a3.056,3.056,0,0,1,3.053,3.053v10.452a3.056,3.056,0,0,1-3.053,3.053h-16.575A3.057,3.057,0,0,1,5201.322,1121.447Zm3.054-11.457a1,1,0,0,0-1,1v10.452a1,1,0,0,0,1,1h16.575a1.006,1.006,0,0,0,1-1v-10.452a1.006,1.006,0,0,0-1-1Z" transform="translate(-5201.322 -1107.941)" fill="#0e1e2b"></path>
      </g>
      <g id="Group_36533" data-name="Group 36533" transform="translate(118.356 150.943)">
        <g id="Group_36532" data-name="Group 36532">
          <g id="Group_36531" data-name="Group 36531">
            <g id="Group_36530" data-name="Group 36530">
              <g id="Group_36529" data-name="Group 36529">
                <path id="Path_35972" data-name="Path 35972" d="M5224.332,1099.684a5.962,5.962,0,0,0,.748-1.746s.025-1.161.092-1.985a5.6,5.6,0,0,1,.08-.634,10.914,10.914,0,0,0,.509-3.443c-.092-1.543-2.2-8.1-2.2-8.1l-3.868.134-3.64-.391s-4.4,8.391-4.477,9.839a3.543,3.543,0,0,0,0,.414,13.826,13.826,0,0,0,.707,2.773c.038.236.575,2.56,1.213,2.878a2.329,2.329,0,0,0,2.264.054,5.574,5.574,0,0,0,3.03.448,3.46,3.46,0,0,0,3.054-.089S5223.564,1100.447,5224.332,1099.684Z" transform="translate(-5211.57 -1083.519)" fill="#eea886"></path>
              </g>
            </g>
          </g>
        </g>
      </g>
      <g id="Group_36534" data-name="Group 36534" transform="translate(84.623 54.372)">
        <path id="Path_35973" data-name="Path 35973" d="M5134.191,862v5.847l7.35-5.492Z" transform="translate(-5134.191 -862.001)" fill="#eea886"></path>
      </g>
      <g id="Group_36535" data-name="Group 36535" transform="translate(84.623 46.197)">
        <path id="Path_35974" data-name="Path 35974" d="M5134.191,857.272l3.052-3.778,10.279-10.245,3.326,3.2Z" transform="translate(-5134.191 -843.249)" fill="#d6c5be"></path>
      </g>
      <g id="Group_36536" data-name="Group 36536" transform="translate(90.31 47.178)">
        <path id="Path_35975" data-name="Path 35975" d="M5156.308,845.5s-8.626,13.092-9.039,18.854,3.207,48.864,6.1,62.719,23.832-1.562,23.832-1.562-14.068-22.771-8.667-41,8.439-30.338,8.439-30.338-3.681-5.867-9.519-6.766S5156.308,845.5,5156.308,845.5Z" transform="translate(-5147.237 -845.498)" fill="#285173"></path>
      </g>
      <g id="Group_36537" data-name="Group 36537" transform="translate(65.135 48.54)">
        <path id="Path_35976" data-name="Path 35976" d="M5089.49,866.65s1.39,13.072,4.037,19.56c0,0,1.11,13.829.939,18.694s-1.323,23.261-1.323,23.261l5.994,3.511a1.691,1.691,0,0,0,2.534-1.663c-1.7-14-7.22-67.115,4.709-81.392l-4.786,1.411S5091.74,859.224,5089.49,866.65Z" transform="translate(-5089.49 -848.623)" fill="#285173"></path>
      </g>
      <g id="Group_36538" data-name="Group 36538" transform="translate(92.967 20.688)">
        <path id="Path_35977" data-name="Path 35977" d="M5154.733,786.083a2.251,2.251,0,0,1,3.329-.956c1.025.769,1.622,3.073,0,6.061S5150.721,796.258,5154.733,786.083Z" transform="translate(-5153.333 -784.734)" fill="#eea886"></path>
      </g>
      <g id="Group_36539" data-name="Group 36539" transform="translate(76.182 44.333)">
        <path id="Path_35978" data-name="Path 35978" d="M5119.536,850.486l-4.706,1.3,7.949-12.814Z" transform="translate(-5114.831 -838.972)" fill="#fae6de"></path>
      </g>
      <g id="Group_36540" data-name="Group 36540" transform="translate(87.674 46.197)">
        <path id="Path_35979" data-name="Path 35979" d="M5141.191,853.494l4.3,5.634,8.816-14.639-2.835-1.24Z" transform="translate(-5141.191 -843.249)" fill="#fae6de"></path>
      </g>
      <g id="Group_36541" data-name="Group 36541" transform="translate(105.662 49.589)">
        <path id="Path_35980" data-name="Path 35980" d="M5184.825,851.288s7.746-2.22,12.185,6.316,4.417,12.179,5.011,16.347c.56,3.936,5.973,27.316,6.229,28.426s2.038,15.724,2.163,21.042c.1,4.044-.854,30.56-.683,31.585s-12.259-1.794-12.259-1.794,1.375-24.456,1.119-27.017-.8-15.327-2.052-19.079c-1.47-4.407-7.273-26.613-8.3-28.79S5178.295,854.062,5184.825,851.288Z" transform="translate(-5182.454 -851.028)" fill="#285173"></path>
      </g>
      <g id="Group_36542" data-name="Group 36542" transform="translate(83.906 37.018)">
        <path id="Path_35981" data-name="Path 35981" d="M5132.547,827.083l.225,2.22s5.063.991,11.7-7.11C5144.476,822.193,5139.769,827.936,5132.547,827.083Z" transform="translate(-5132.547 -822.193)" fill="#a77860"></path>
      </g>
      <g id="Group_36543" data-name="Group 36543" transform="translate(94.134 173.662)">
        <rect id="Rectangle_21422" data-name="Rectangle 21422" width="62.19" height="44.557" transform="translate(62.19 44.557) rotate(180)" fill="#54281a"></rect>
      </g>
      <g id="Group_36544" data-name="Group 36544" transform="translate(94.134 173.662)">
        <rect id="Rectangle_21423" data-name="Rectangle 21423" width="62.19" height="25.828" transform="translate(62.19 25.828) rotate(180)" fill="#873f2b"></rect>
      </g>
      <path id="Path_35982" data-name="Path 35982" d="M5090.4,908.2s-2.283-8.76.893-16.941c0,0-2.351,7.508.937,14.751Z" transform="translate(-5024.418 -824.132)" fill="#1d3b54"></path>
      <path id="Path_35983" data-name="Path 35983" d="M5194.5,908.416s-4.107-14.268-4.358-15.039c0,0,.67,12.823,2.3,19.216A21.24,21.24,0,0,1,5194.5,908.416Z" transform="translate(-5081.129 -825.326)" fill="#1d3b54"></path>
    </g>
    <g id="Group_36564" data-name="Group 36564" transform="translate(4052.464 622.809)">
      <path id="Rectangle_21424" data-name="Rectangle 21424" d="M35.985,0h80.532A35.985,35.985,0,0,1,152.5,35.985V318a35.986,35.986,0,0,1-35.986,35.986H35.986A35.986,35.986,0,0,1,0,318V35.985A35.985,35.985,0,0,1,35.985,0Z" transform="translate(158.619 357.154) rotate(180)" fill="#587aa3"></path>
      <rect id="Rectangle_21425" data-name="Rectangle 21425" width="180.186" height="359.872" rx="13" transform="translate(180.186 359.872) rotate(180)" fill="#2a3349"></rect>
      <g id="Group_36549" data-name="Group 36549" transform="translate(101.335 123.812)">
        <g id="Group_36548" data-name="Group 36548">
          <g id="Group_36547" data-name="Group 36547">
            <g id="Group_36546" data-name="Group 36546">
              <path id="Path_35984" data-name="Path 35984" d="M4786.55,906.814l6.6,10.4,6.088,9.594c-.014-.051-.419-1.5-1.107-5.711-.131-.8-.272-1.7-.422-2.7a6.969,6.969,0,0,0-.191-.885h0c-2.6-6.007-10.66-10.536-10.956-10.686Z" transform="translate(-4786.55 -906.814)" fill="#eddad3"></path>
            </g>
          </g>
        </g>
      </g>
      <g id="Group_36552" data-name="Group 36552" transform="translate(101.343 123.817)">
        <g id="Group_36551" data-name="Group 36551">
          <g id="Group_36550" data-name="Group 36550">
            <path id="Path_35985" data-name="Path 35985" d="M4797.5,917.439h0a13.546,13.546,0,0,1,.641,3.659l-2.385-3.6s-4.259-6.108-5.719-7.7a24.129,24.129,0,0,0-3.464-2.979S4794.948,910.851,4797.5,917.439Z" transform="translate(-4786.567 -906.824)" fill="#ffca55"></path>
          </g>
        </g>
      </g>
      <path id="Path_35986" data-name="Path 35986" d="M4735.642,645.772V968.381a15.682,15.682,0,0,1-15.688,15.682H4598.829a15.687,15.687,0,0,1-15.69-15.682V645.772a15.689,15.689,0,0,1,15.69-15.689h121.125A15.684,15.684,0,0,1,4735.642,645.772Z" transform="translate(-4570.48 -626.912)" fill="#6bb0ff" opacity="0.73" style="mix-blend-mode: screen;isolation: isolate"></path>
      <g id="Group_36558" data-name="Group 36558" transform="translate(21.593 54.003)">
        <path id="Path_35987" data-name="Path 35987" d="M4691.634,1362.463s2.524,6.981,6.753,9.937,8.6,7.183,7.445,10.141-15.279,1.39-21.187-7.194c-3.733-5.424-7.525-6.633-7.515-9.2s4.341-7.7,4.567-8.431C4681.979,1356.816,4691.634,1362.463,4691.634,1362.463Z" transform="translate(-4645.09 -1091.28)" fill="#353a3d"></path>
        <path id="Path_35988" data-name="Path 35988" d="M4698.51,1356.072a25.77,25.77,0,0,1-1.046,2.529c-.11.014-10.906-2.88-9.936-4.749a17.2,17.2,0,0,1,2.252-3.081Z" transform="translate(-4650.92 -1087.418)" fill="#81807e"></path>
        <g id="Group_36553" data-name="Group 36553" transform="translate(20.186 143.434)">
          <path id="Path_35989" data-name="Path 35989" d="M4649.938,1083.642s3.122-7.409,5.541-7.873.432,1.466.432,1.466-3.072,5.091-4.108,7.227A12.036,12.036,0,0,1,4649.938,1083.642Z" transform="translate(-4649.938 -1075.697)" fill="#434343"></path>
        </g>
        <g id="Group_36554" data-name="Group 36554" transform="translate(23.042 130.524)">
          <path id="Path_35990" data-name="Path 35990" d="M4668.939,1053.194a58.8,58.8,0,0,0-.775,7.223c-.132,3.634.446,5.011-.631,6.739-.812,1.3-2.789,1.8-3.031,1.2s1.51-6.163-.777-6.946-1.732,7.05-2.911,6.071-5.387-5.688-4.076-8.343,4.108-3.918,5.442-8.1c1.209-3.8,2.935-4.953,2.935-4.953Z" transform="translate(-4656.488 -1046.083)" fill="#eea886"></path>
        </g>
        <g id="Group_36555" data-name="Group 36555" transform="translate(26.296 145.512)">
          <path id="Path_35991" data-name="Path 35991" d="M4668.243,1080.654s2.758,1.85-1.058,12.048l-3.232-1.792s2.073-5.649,2.143-9.1C4666.1,1081.807,4666.982,1079.861,4668.243,1080.654Z" transform="translate(-4663.953 -1080.464)" fill="#545554"></path>
        </g>
        <g id="Group_36556" data-name="Group 36556" transform="translate(2.79 146.448)">
          <path id="Path_35992" data-name="Path 35992" d="M4645.692,1099.681l-24.061-17.07-11.6,32.974L4631,1140.974Z" transform="translate(-4610.033 -1082.611)" fill="#545554"></path>
        </g>
        <path id="Path_35993" data-name="Path 35993" d="M4807.966,1130.733v64.73c-6.626-20.106-21.1-63.579-24.586-70.694-3.035-6.225-30.57-42.148-32.593-39.584s-13.305,32.679-14.8,40.09c-1.482,7.411-35.242,62.428-35.242,62.428s-.593-.122-1.5-.366c-2.354-.7-6.853-2.319-9.137-5.336a7.134,7.134,0,0,1-.7-1.081s24.8-53.831,27.134-64.016c.819-3.557,1.743-20.943,5-39.078a151.3,151.3,0,0,1,6.015-23.681c1.03-2.842,4.029-4.028,8.04-4.15.68-.035,1.4-.018,2.128.017,1.221.07,2.511.209,3.854.4a78.8,78.8,0,0,1,9.591,2.162c2.755.8,5.51,1.692,8.074,2.6,2.982,1.063,5.737,2.145,8.021,3.069.75.3,1.448.593,2.093.854.714.3,1.342.575,1.884.8,1.43.628,2.267,1.011,2.267,1.011s4.341,7.725,9.729,17.543c7.411,13.5,16.81,30.9,19.688,37.6A126.468,126.468,0,0,1,4807.966,1130.733Z" transform="translate(-4652.013 -917.755)" fill="#353a3d"></path>
        <path id="Path_35994" data-name="Path 35994" d="M4784.246,908.719l10.183,11.387v18.851c-7.289-6.923-15.868-15.764-19.06-18.571a5.7,5.7,0,0,0-1.151-.872c-.453-.174-1.273-1.308-2.267-3.017-.279-.471-.593-1.011-.907-1.569-.471-.854-.959-1.779-1.465-2.755-.331-.645-.679-1.308-1.028-1.988s-.681-1.378-1.029-2.058c-.68-1.378-1.36-2.755-1.97-4.045-.471-.977-.907-1.9-1.309-2.738-.262-.575-.523-1.1-.75-1.587s-.435-.924-.61-1.325c-.435-.942-.715-1.552-.785-1.691a46.045,46.045,0,0,1-.087,8.074,39.225,39.225,0,0,1-1.046,6.068,47,47,0,0,0-1.081,9.4v.1c0,.087-.018.157-.018.244v.1c-.175,6.417.261,13.34.453,17.019.279,5.789-1.656,8.353-1.656,8.353s-.262-.035-.733-.1l-1.256-.174-1.43-.192-1.935-.279-7.517-1.047-2.737-.383-.627-.087-4.76-.68-9.609-1.343-3.836-.541-2.075-.3-5.057-.715-2.267-.331h-.035s-1.954-13.793-2.093-21.24c-.14-6.958-3.923-21.2-4.429-23.071a.518.518,0,0,1-.035-.14v-.017c0-.017,0-.017-.018-.017v-.035s-10.969,11.527-13.1,16.549c-.522,1.238-1.917,4.185-3.784,7.952-.035.087-.07.174-.1.244-5.057,10.236-13.358,26.227-16.566,29.976-.384.488-.715.767-.942.8a1.71,1.71,0,0,1-.313.035c-2,.017-5.371-2.773-7.028-4.272-.609-.541-.976-.907-.976-.907s.139-.331.418-.924c2.337-5.354,14.177-32.278,17.159-38.608.28-.593.488-1.011.593-1.2a2.709,2.709,0,0,0,.174-.331c2.232-4.307,17.4-37.282,19.723-38.939a12.844,12.844,0,0,1,1.22-.715,4.675,4.675,0,0,0,.592-.3.285.285,0,0,0,.088-.035c.384-.175.785-.366,1.238-.576.14-.07.3-.139.454-.209.314-.139.628-.279.959-.436,1.831-.8,3.994-1.709,6.086-2.563.593-.244,1.168-.471,1.709-.68.819-.331,1.621-.628,2.354-.907.1-.035.192-.07.279-.1a35.562,35.562,0,0,1,4.708-1.6h.315c.156,0,.366.017.61.035,3.034.174,12.084,1.011,15,1.29.593.052.924.087.924.087s1.4.645,3.488,1.587l.017.017.176.07c1.22.558,2.65,1.221,4.167,1.918,3.174,1.464,6.766,3.139,9.608,4.481,2.72,1.308,6.836,3.522,7.15,3.767Z" transform="translate(-4638.477 -809.279)" fill="#decbc4"></path>
        <path id="Path_35995" data-name="Path 35995" d="M4821.566,1052.558s1.011,1.209,1.3,6.328c0,0-41.552-4.847-45.945-6.758,0,0-.171-5.641.76-5.739C4778.708,1046.281,4821.566,1052.558,4821.566,1052.558Z" transform="translate(-4701.372 -915.731)" fill="#495055"></path>
        <path id="Path_35996" data-name="Path 35996" d="M4798.061,835.153c.129,6.521,12.755,10.088,12.755,10.088s5.282-6.621,4.021-7.255c-.5-.249-.7-1.238-.759-2.346a22.971,22.971,0,0,1,.072-2.957c.037-.462.073-.759.073-.759s-1.8-1.9-4.1-4.171c-4.01-3.965-9.524-9.045-9.533-7.024a1.893,1.893,0,0,0,.046.383C4801.606,825.66,4798.061,835.153,4798.061,835.153Z" transform="translate(-4713.301 -788.19)" fill="#eea886"></path>
        <path id="Path_35997" data-name="Path 35997" d="M4796.7,1048.376s-.907,5.719-.985,7.21l-1.923-.383s.529-6.052.84-7.065Z" transform="translate(-4710.893 -916.718)" fill="#5d676c"></path>
        <path id="Path_35998" data-name="Path 35998" d="M4868.883,1058.659s.729,5.2.746,7.162l-2.033-.265s-.417-6.491-.649-7.169Z" transform="translate(-4752.155 -922.499)" fill="#353a3d"></path>
        <path id="Path_35999" data-name="Path 35999" d="M4809.216,832.491h0c.025.038.562.839,1.475,1.989,1.938,2.438,5.582,6.443,9.679,8.052a22.868,22.868,0,0,1,.073-2.958,6.579,6.579,0,0,0,1.253-.151,38.943,38.943,0,0,0-2.744-4.02l-2.535-.758Z" transform="translate(-4719.592 -795.083)" fill="#a77860"></path>
        <path id="Path_36000" data-name="Path 36000" d="M4798.093,793.169c1.092,2.375,2.13,4.1,2.423,4.781h0a8.474,8.474,0,0,0,1.475,1.989c2.081,2.242,5.949,5.2,9.75,5.1a6.584,6.584,0,0,0,1.254-.151,5.965,5.965,0,0,0,4.346-3c7.877-15.423,2.174-28.033,2.174-28.033s-21.538-6.091-24.908.393C4792.244,778.789,4795.527,787.586,4798.093,793.169Z" transform="translate(-4710.894 -760.542)" fill="#eea886"></path>
        <path id="Path_36001" data-name="Path 36001" d="M4815.342,759.989s2-.111,2.5-3.9c.489-3.747-.5-4.785-.5-4.785s-8.892-3.722-12.085-4.206-11.045-.949-12.886,1.156c0,0-4.471-1.039-5.69,6.384-1.933,11.777,6.586,23.212,6.586,23.212s-.074-7.693,1.624-8.713,3.162,1.406,3.162,1.406l3.47.621s-5.271-11.382,1.052-11.8S4811.722,760.649,4815.342,759.989Z" transform="translate(-4706.718 -746.683)" fill="#e2d2ca"></path>
        <path id="Path_36002" data-name="Path 36002" d="M4805.059,790.167c-.331-3.39-6.46-4.683-6.049-1.131s3.429,6.966,4.823,6.846S4805.31,792.75,4805.059,790.167Z" transform="translate(-4713.825 -769.379)" fill="#eea886"></path>
        <path id="Path_36003" data-name="Path 36003" d="M4695.125,914.029c-2.406,4.9-17.435,37.652-20.07,38.138s-9.655-5.584-9.655-5.584,16.771-36.969,18.179-39.453,17.5-37.564,19.889-39.276c1.38-.99,7.337-3.529,12.354-5.507.917-.363,1.805-.707,2.627-1.018,1.064,1.184,18.174,20.521,16.567,37.662-.482,5.151-1.131,13.549-2.556,22.392-1.475,9.189-3.856,19.577-5.4,27.416a143.714,143.714,0,0,1-8.924,27.694l-16.023-8.019a5.577,5.577,0,0,1-2.757-6.862c3.6-10.093,10.8-30.48,10.807-39.337,0,0-.569-20-1.947-24.762C4708.221,897.512,4697.885,908.412,4695.125,914.029Z" transform="translate(-4638.473 -811.349)" fill="#3c4145"></path>
        <path id="Path_36004" data-name="Path 36004" d="M4895.574,923.715v19.879c-7.132-6.958-15.851-16.288-19.06-19.217a5.709,5.709,0,0,0-1.151-.872c-.454-.174-1.273-1.308-2.268-3.017-.3-.471-.593-1.011-.906-1.569-.471-.854-.959-1.779-1.465-2.755-.332-.645-.68-1.308-1.029-1.988s-.68-1.378-1.028-2.058c-.68-1.378-1.36-2.755-1.97-4.045-.471-.977-.924-1.9-1.308-2.738-.262-.575-.524-1.1-.75-1.587s-.436-.924-.611-1.325c-.436-.942-.715-1.552-.784-1.692a19.721,19.721,0,0,1-.087,8.074c-.854,4.865-2.546,9.992-2.128,15.467v.1c1.326,16.618,8.317,40.142,10.393,46.8a2.946,2.946,0,0,1-.576,2.79,1.63,1.63,0,0,1-.278.331l-4.987,4.6s-4.324-13.323-6.557-22.722c-.052-.261-.122-.523-.174-.767a50.8,50.8,0,0,1-1.029-5.6V949.8c-.4-3.732-1.2-8.091-2.075-12.73-.854-4.638-1.744-9.573-2.284-14.439-1.4-12.346-2.826-24.588-3.854-31.772-.331-2.337-.663-4.5-.977-6.487-2.214-13.933-3.905-19.548-3.905-19.548l.1-.087c1.22.558,2.651,1.221,4.167,1.918,3.173,1.464,6.766,3.139,9.607,4.481,2.721,1.308,6.837,3.522,7.151,3.767l19.635,37.806Z" transform="translate(-4739.622 -813.273)" fill="#3c4145"></path>
        <path id="Path_36005" data-name="Path 36005" d="M4787.192,877.513l6.142,3.464-2.625,2.677,6.988,37.729c1.425-8.843,2.073-17.241,2.556-22.392,1.606-17.141-15.5-36.478-16.567-37.662-.823.311-1.709.656-2.627,1.018Z" transform="translate(-4703.711 -811.349)" fill="#51565c"></path>
        <path id="Path_36006" data-name="Path 36006" d="M4844.524,864.55s2.3,7.5,4.97,26.205c1.025,7.188,2.464,19.42,3.847,31.767l1.43-35.335-2.926-3.17,2.6-3.251-5.567-14.213c-1.52-.7-2.951-1.36-4.162-1.916Z" transform="translate(-4739.508 -813.166)" fill="#51565c"></path>
        <path id="Path_36007" data-name="Path 36007" d="M4739.343,863.665c-5.017,1.978-12.486,4.549-13.866,5.54-2.389,1.712-16.968,36.758-18.377,39.243Z" transform="translate(-4661.994 -812.667)" fill="#3c4145"></path>
        <path id="Path_36008" data-name="Path 36008" d="M4627.391,1140.151l-3.571-.569-20.186-25.28,12.111-33.15,2.276.636Z" transform="translate(-4603.634 -935.34)" fill="#545554"></path>
        <path id="Path_36009" data-name="Path 36009" d="M4786.378,857.5l5.093-3.093s.143,2.793,12.755,10.088l-3.583,10.089Z" transform="translate(-4706.71 -807.445)" fill="#f5e2d9"></path>
        <path id="Path_36010" data-name="Path 36010" d="M4830.675,857.635s-.2,3.015-3.355,8.682l6.991,9.113.51-14.78Z" transform="translate(-4729.804 -809.265)" fill="#f5e2d9"></path>
        <path id="Path_36011" data-name="Path 36011" d="M4826.018,877.549s-1.355,5.419-.867,6.936c0,0,2.979,1.084,5.12-.271A23.83,23.83,0,0,0,4826.018,877.549Z" transform="translate(-4728.521 -820.498)" fill="#464157"></path>
        <g id="Group_36557" data-name="Group 36557" transform="translate(103.857 119.44)">
          <path id="Path_36012" data-name="Path 36012" d="M4842.509,1036.427c.757-3.824.036-15.281,0-15.766l-.648.041c.008.118.748,11.858,0,15.6Z" transform="translate(-4841.865 -1020.66)" fill="#ad9f99"></path>
        </g>
        <path id="Path_36013" data-name="Path 36013" d="M4831,1052.781s6.114.73,8.136,1.234l-.266,6.853-8.006-.854Z" transform="translate(-4731.802 -919.337)" fill="#69737a"></path>
        <path id="Path_36014" data-name="Path 36014" d="M4828.35,890.738a137.88,137.88,0,0,1,6.779,36.227c.759,19.292-1.281,24.278-1.281,24.278l-7.532,6.778-2.521-8.811a114.673,114.673,0,0,0,3.157-46.225c-.66-4.493-1.639-13.006-1.639-13.006Z" transform="translate(-4727.816 -827.509)" fill="#464157"></path>
      </g>
      <rect id="Rectangle_21426" data-name="Rectangle 21426" width="164.894" height="353.992" rx="14" transform="translate(12.652 3.161)" fill="#a3cdff" opacity="0.98" style="mix-blend-mode: screen;isolation: isolate"></rect>
      <g id="Group_36563" data-name="Group 36563" transform="translate(112.147 54.9)">
        <g id="Group_36560" data-name="Group 36560" transform="translate(72.163 127.265)">
          <g id="Group_36559" data-name="Group 36559">
            <path id="Path_36015" data-name="Path 36015" d="M4983.893,1040.665s2.45,3.568,3.735,3.688,3.088,1.263,4.211,1.59,4.534.136,5.531.885c.407.306,2.138,3.174,3.035,3.706s2.855,1.388,2.353,2.151-2.477.475-2.477.475a1.3,1.3,0,0,1,.553,1.336c-.457,1.558-1.461,1.757-1.461,1.757s.434,1.069.08,1.674a2.858,2.858,0,0,1-1.758,1.5,2.625,2.625,0,0,1-.719,1.643,2.394,2.394,0,0,1-2.211.663s-.87,1.5-1.825,1.353a8.1,8.1,0,0,1-2.266-1.064,29.9,29.9,0,0,1-8.057-9.6,22.067,22.067,0,0,0-5.735-7.4Z" transform="translate(-4976.879 -1040.665)" fill="#eea886"></path>
          </g>
        </g>
        <g id="Group_36561" data-name="Group 36561" transform="translate(82.545 135.639)">
          <path id="Path_36016" data-name="Path 36016" d="M5013.394,1063.423s-4.481-3.874-6.484-3.526-.468,1.836-.468,1.836-1.495-1.5-2.838-.423.55,2.719.55,2.719a1.712,1.712,0,0,0-2.366.7c-.921,1.531.968,2.536.968,2.536s-2.7-.035-1.92,2.024c1.324,3.478,5.535,4.628,5.535,4.628s1.041.18,1.825-1.353a2.371,2.371,0,0,0,2.93-2.306s2.832-1.01,1.678-3.172C5012.8,1067.088,5015.756,1065.838,5013.394,1063.423Z" transform="translate(-5000.692 -1059.874)" fill="#db9c7c"></path>
        </g>
        <path id="Path_36017" data-name="Path 36017" d="M4983.05,1409.873s6.1,4.9,11.534,5.249,11.686,1.757,12.27,5.052-16.5,7.482-23.035,5.138c-9.756-3.5-10.418-1.848-11.818-4.169s-.314-9.322-.508-10.1C4971.252,1410.081,4983.05,1409.873,4983.05,1409.873Z" transform="translate(-4901.554 -1121.651)" fill="#353a3d"></path>
        <path id="Path_36018" data-name="Path 36018" d="M4982.3,1403.775a24.055,24.055,0,0,1,1.033,2.658c-.092.073-11.553,3.393-11.557,1.17,0-1.8.093-3.776.093-3.776Z" transform="translate(-4901.839 -1118.212)" fill="#81807e"></path>
        <path id="Path_36019" data-name="Path 36019" d="M4894.755,1204.995c.139.68-.627,1.116-1.849,1.378-2.93.663-8.527.4-11.021.244-.768-.052-1.238-.087-1.238-.087s-23.367-71.566-27.936-80.878c-3.034-6.225-30.569-42.148-32.591-39.584,0,0-4.865-11.143-7.1-28.11-.279-2.058-.506-4.2-.7-6.417a81.041,81.041,0,0,1,8.178,1.918c2.755.8,5.51,1.692,8.073,2.6,2.982,1.064,5.738,2.145,8.022,3.069.749.3,1.447.593,2.092.854.715.3,1.343.575,1.884.8,1.43.628,2.267,1.011,2.267,1.011s4.341,7.725,9.729,17.543c7.411,13.5,16.811,30.9,19.688,37.6,4.622,10.724,9.364,29.993,9.992,37.526C4883.054,1163.946,4894.2,1202.222,4894.755,1204.995Z" transform="translate(-4811.9 -919.534)" fill="#353a3d"></path>
        <path id="Path_36020" data-name="Path 36020" d="M4894.988,941.365s-.209.244-.557.663c-1.2,1.412-4.116,4.761-5.964,6.522a1.574,1.574,0,0,0-.175.157c-.209.192-.628.1-1.238-.209-5.284-2.738-24.239-22.757-29.366-27.256-.349-.3-.645-.541-.854-.7a.282.282,0,0,0-.122-.07.656.656,0,0,0-.174-.1c-.454-.174-1.273-1.308-2.267-3.017-.279-.471-.593-1.011-.907-1.569-.227-.436-.471-.872-.714-1.325-.244-.471-.488-.942-.75-1.43-.331-.645-.679-1.308-1.029-1.988-1.2-2.372-2.424-4.865-3.469-7.062-.245-.541-.507-1.064-.733-1.569-.4-.838-.75-1.587-1.064-2.25-.139-.3-.261-.575-.383-.837-.088-.209-.175-.383-.262-.558a3.774,3.774,0,0,0-.209-.453c-.158-.349-.262-.593-.313-.7a.018.018,0,0,0-.018-.018,46.045,46.045,0,0,1-.087,8.074v.017a39.024,39.024,0,0,1-1.046,6.051,47,47,0,0,0-1.081,9.4v.1c0,.087-.018.157-.018.244v.1c-.175,6.417.261,13.34.453,17.02.279,5.789-1.656,8.353-1.656,8.353s-.262-.035-.733-.1c-.314-.052-.75-.1-1.255-.174l-1.43-.192-1.935-.279-7.517-1.047-2.737-.383-.627-.087-4.761-.68-8.231-1.151v-.122c-.139-1.674-.244-3.4-.314-5.162v-.017c-.1-2.581-.122-5.249-.052-7.987a186.251,186.251,0,0,1,1.6-19.042c1.116-8.405,2.424-16.148,2.877-24.762A114.589,114.589,0,0,0,4815.89,874v-.017c-.14-2.511-.348-5.144-.68-7.9-.034-.279-.069-.558-.122-.837-.244-1.953-.541-3.976-.907-6.068,2.93.262,5.807.523,7.22.663h.017c.576.052.907.087.907.087s1.394.645,3.487,1.587l.017.017.175.07c1.221.558,2.651,1.221,4.167,1.918,3.174,1.464,6.767,3.139,9.608,4.481,2.72,1.308,6.836,3.522,7.15,3.767l19.635,37.806,27.744,31.022Z" transform="translate(-4811.349 -811.034)" fill="#decbc4"></path>
        <path id="Path_36021" data-name="Path 36021" d="M4842.819,1061.41s-.768-.087-2.093-.245c-.558-.069-1.221-.156-1.971-.244-.61-.07-1.307-.157-2.04-.244-2.337-.3-5.2-.645-8.318-1.046-2.564-.314-5.284-.663-8.021-1.046-2.494-.331-4.988-.663-7.377-1.011-.278-2.058-.5-4.2-.7-6.417a.586.586,0,0,0-.018-.174v-.122c2.65.384,5.458.767,8.231,1.168,1.621.244,3.225.471,4.777.7.209.035.418.052.627.087.924.139,1.848.261,2.72.4,2.825.4,5.424.785,7.516,1.081.7.1,1.343.192,1.936.279.54.087,1.012.157,1.43.209v.017c.505.07.942.122,1.255.175.471.07.733.1.733.1S4842.522,1056.283,4842.819,1061.41Z" transform="translate(-4811.877 -919.151)" fill="#495055"></path>
        <path id="Path_36022" data-name="Path 36022" d="M4818.752,847.826h-.018l-.018-.018a27.473,27.473,0,0,1-3.069-1.081c-.034-.279-.068-.558-.122-.837-.244-1.953-.541-3.976-.906-6.068-.279-1.622-.593-3.278-.959-4.987-.278-1.343-.54-2.651-.732-3.923v-.018c-.228-.244-.418-.488-.593-.715.175.191.366.384.558.575q-.183-1.046-.313-2.04V828.7c-.192-1.325-.332-2.6-.454-3.836,1.813,1.5,4.045,3.61,5.929,5.475,2.3,2.267,4.1,4.186,4.1,4.186s-.035.3-.07.75a25.819,25.819,0,0,0-.07,2.964,7.41,7.41,0,0,0,.087.907c.105.7.314,1.255.663,1.43C4824.035,841.217,4818.752,847.826,4818.752,847.826Z" transform="translate(-4811.787 -791.675)" fill="#eea886"></path>
        <path id="Path_36023" data-name="Path 36023" d="M4868.883,1058.659s.729,5.2.746,7.162l-2.033-.265s-.417-6.491-.649-7.169Z" transform="translate(-4842.708 -923.396)" fill="#353a3d"></path>
        <path id="Path_36024" data-name="Path 36024" d="M4822.354,840.257a25.809,25.809,0,0,0-.071,2.964c-3.714-1.465-7.045-4.883-9.085-7.324v-.017c-.227-.244-.418-.488-.593-.715.175.191.366.384.558.576q-.183-1.046-.313-2.04l5.475,1.621,2.545.768a38.614,38.614,0,0,1,2.738,4.011A6.193,6.193,0,0,1,4822.354,840.257Z" transform="translate(-4812.057 -796.662)" fill="#a77860"></path>
        <path id="Path_36025" data-name="Path 36025" d="M4827.3,801.926a5.94,5.94,0,0,1-4.343,3,6.18,6.18,0,0,1-1.254.157c-3.488.087-7.028-2.389-9.191-4.516q-.182-1.046-.313-2.04v-.018c-.192-1.325-.332-2.6-.454-3.836a62.384,62.384,0,0,1-.262-7.9c.018-1.046.07-2.058.157-3.017.071-1.029.175-2.023.332-2.964a38.738,38.738,0,0,1,2.477-9.451,77.411,77.411,0,0,1,15.032,2.563S4835.181,786.511,4827.3,801.926Z" transform="translate(-4811.406 -761.488)" fill="#eea886"></path>
        <path id="Path_36026" data-name="Path 36026" d="M4832.217,757.25c-.487,3.784-2.493,3.906-2.493,3.906-3.627.645-6.452-1.064-12.782-.645-6.312.419-1.046,11.805-1.046,11.805l-3.47-.611-.017-.017a3.835,3.835,0,0,0-.524-.68c.071-1.029.175-2.023.332-2.964a38.671,38.671,0,0,1,2.477-9.451c2.807-6.871,6.643-9.626,6.958-9.852h.018c3.906,1.151,10.044,3.714,10.044,3.714S4832.706,753.5,4832.217,757.25Z" transform="translate(-4811.651 -748.74)" fill="#e2d2ca"></path>
        <path id="Path_36027" data-name="Path 36027" d="M4812.205,796.664a4.089,4.089,0,0,1-.681,2.337c.018-1.046.07-2.058.158-3.017.069-1.029.174-2.023.331-2.964a2.245,2.245,0,0,1,.122.593A17.952,17.952,0,0,1,4812.205,796.664Z" transform="translate(-4811.447 -773.716)" fill="#eea886"></path>
        <path id="Path_36028" data-name="Path 36028" d="M4817.338,932.177c-.489,5.162-1.135,13.549-2.546,22.408-.907,5.633-2.163,11.7-3.349,17.386-.1-2.581-.122-5.249-.052-7.987a186.252,186.252,0,0,1,1.6-19.042c1.116-8.405,2.424-16.148,2.877-24.762A31.526,31.526,0,0,1,4817.338,932.177Z" transform="translate(-4811.349 -845.441)" fill="#3c4145"></path>
        <path id="Path_36029" data-name="Path 36029" d="M4861.519,924.485c-.667-8.615,3.442-16.594,1.731-23.782l.008.015c.365.8,10.047,22.032,12.11,22.788,2.1.774,28.331,30.17,30.531,28.117,2.348-2.193,7.713-8.439,7.713-8.439l-28.222-30.467-19.628-37.8c-.317-.252-4.431-2.464-7.155-3.761-2.834-1.35-6.423-3.015-9.606-4.485-1.52-.7-2.951-1.36-4.162-1.916l-.1.079s2.2,7.33,4.875,26.039c1.025,7.188,2.465,19.42,3.848,31.767v0c1.092,9.733,3.582,19.721,4.373,27.174.82,7.719,7.759,29.1,7.759,29.1l4.99-4.606a3.025,3.025,0,0,0,.837-3.119C4869.355,964.513,4862.8,941.087,4861.519,924.485Z" transform="translate(-4830.184 -814.176)" fill="#3c4145"></path>
        <path id="Path_36030" data-name="Path 36030" d="M4819.468,932.177c-.488,5.162-1.134,13.549-2.545,22.408l-1.8-9.643c1.115-8.405,2.423-16.148,2.877-24.762A31.515,31.515,0,0,1,4819.468,932.177Z" transform="translate(-4813.479 -845.441)" fill="#51565c"></path>
        <path id="Path_36031" data-name="Path 36031" d="M4844.524,864.55s2.3,7.5,4.97,26.205c1.025,7.188,2.464,19.42,3.847,31.767l1.43-35.335-2.926-3.17,2.6-3.251-5.567-14.213c-1.52-.7-2.951-1.36-4.162-1.916Z" transform="translate(-4830.062 -814.062)" fill="#51565c"></path>
        <path id="Path_36032" data-name="Path 36032" d="M4823.151,875.036v.017l-.053.1v.052l-2.372,6.626c-.14-2.511-.349-5.144-.681-7.9-.034-.279-.069-.558-.122-.837.959.61,2.022,1.238,3.191,1.918l.017.018Z" transform="translate(-4816.186 -818.885)" fill="#f5e2d9"></path>
        <path id="Path_36033" data-name="Path 36033" d="M4830.675,857.635s-.2,3.015-3.355,8.682l6.991,9.113.51-14.78Z" transform="translate(-4820.356 -810.162)" fill="#f5e2d9"></path>
        <path id="Path_36034" data-name="Path 36034" d="M4826.018,877.549s-1.355,5.419-.867,6.936c0,0,2.979,1.084,5.12-.271A23.83,23.83,0,0,0,4826.018,877.549Z" transform="translate(-4819.075 -821.395)" fill="#464157"></path>
        <g id="Group_36562" data-name="Group 36562" transform="translate(13.304 118.544)">
          <path id="Path_36035" data-name="Path 36035" d="M4842.509,1036.427c.757-3.824.036-15.281,0-15.766l-.648.041c.008.118.748,11.858,0,15.6Z" transform="translate(-4841.865 -1020.66)" fill="#ad9f99"></path>
        </g>
        <path id="Path_36036" data-name="Path 36036" d="M4831,1052.781s6.114.73,8.136,1.234l-.266,6.853-8.006-.854Z" transform="translate(-4822.356 -920.234)" fill="#69737a"></path>
        <path id="Path_36037" data-name="Path 36037" d="M4828.35,890.738a137.88,137.88,0,0,1,6.779,36.227c.759,19.292-1.281,24.278-1.281,24.278l-7.532,6.778-2.521-8.811a114.673,114.673,0,0,0,3.157-46.225c-.66-4.493-1.639-13.006-1.639-13.006Z" transform="translate(-4818.37 -828.406)" fill="#464157"></path>
      </g>
    </g>
  </g>
</svg>
